<?xml version="1.0" encoding="UTF-8" standalone="no"?>
<!-- Created with Inkscape (http://www.inkscape.org/) -->

<svg
   xmlns:dc="http://purl.org/dc/elements/1.1/"
   xmlns:cc="http://creativecommons.org/ns#"
   xmlns:rdf="http://www.w3.org/1999/02/22-rdf-syntax-ns#"
   xmlns:svg="http://www.w3.org/2000/svg"
   xmlns="http://www.w3.org/2000/svg"
   xmlns:sodipodi="http://sodipodi.sourceforge.net/DTD/sodipodi-0.dtd"
   xmlns:inkscape="http://www.inkscape.org/namespaces/inkscape"
   width="114.56458mm"
   height="91.51194mm"
   viewBox="0 0 114.56458 91.51194"
   version="1.1"
   id="svg8"
   inkscape:version="0.92.4 (5da689c313, 2019-01-14)">
  <defs
     id="defs2" />
  <sodipodi:namedview
     id="base"
     pagecolor="#ffffff"
     bordercolor="#666666"
     borderopacity="1.0"
     inkscape:pageopacity="0.0"
     inkscape:pageshadow="2"
     inkscape:zoom="0.35"
     inkscape:cx="-113.2143"
     inkscape:cy="240.80047"
     inkscape:document-units="mm"
     inkscape:current-layer="layer1"
     showgrid="false"
     fit-margin-top="0"
     fit-margin-left="0"
     fit-margin-right="0"
     fit-margin-bottom="0"
     inkscape:window-width="1920"
     inkscape:window-height="1017"
     inkscape:window-x="-8"
     inkscape:window-y="84"
     inkscape:window-maximized="1" />
  <metadata
     id="metadata5">
    <rdf:RDF>
      <cc:Work
         rdf:about="">
        <dc:format>image/svg+xml</dc:format>
        <dc:type
           rdf:resource="http://purl.org/dc/dcmitype/StillImage" />
        <dc:title></dc:title>
      </cc:Work>
    </rdf:RDF>
  </metadata>
  <g
     inkscape:label="Layer 1"
     inkscape:groupmode="layer"
     id="layer1"
     transform="translate(-0.472473,-0.080806)">
    <g
       id="g857"
       transform="translate(-39.30952,-80.886905)">
      <path
         style="fill:#e3fbe2;stroke-width:0.26458332"
         d="m 61.147097,151.08213 c -11.750807,-11.74997 -21.365104,-21.5282 -21.365104,-21.7294 0,-0.49778 19.347554,-19.81002 19.84624,-19.81002 0.218196,0 5.455824,5.06016 11.639176,11.24479 6.183352,6.18464 11.362277,11.24479 11.508721,11.24479 0.146447,0 11.755334,-11.48953 25.79753,-25.53229 14.04219,-14.042758 25.71069,-25.532289 25.92999,-25.532289 0.51918,0 19.84292,19.326199 19.84292,19.845439 0,0.45399 -71.168292,71.71806 -71.570151,71.66647 -0.14532,-0.0187 -9.878515,-9.64752 -21.629322,-21.39749 z"
         id="path871"
         inkscape:connector-curvature="0" />
      <path
         style="fill:#c5fac3;stroke-width:0.26458332"
         d="M 61.279388,150.94876 C 49.601342,139.27174 40.046577,129.55335 40.046577,129.35234 c 0,-0.49752 19.083223,-19.54505 19.581674,-19.54505 0.218186,0 5.455806,5.06016 11.639158,11.24479 6.183352,6.18464 11.362277,11.2448 11.508721,11.2448 0.146447,0 11.755334,-11.48953 25.79753,-25.53229 14.04219,-14.042765 25.7107,-25.532295 25.93001,-25.532295 0.51917,0 19.57832,19.061635 19.57832,19.580875 0,0.45443 -70.904262,71.45375 -71.305574,71.40117 -0.14532,-0.019 -9.818981,-9.58855 -21.497028,-21.26558 z"
         id="path869"
         inkscape:connector-curvature="0" />
      <path
         style="fill:#a7f9a5;stroke-width:0.26458332"
         d="M 61.41168,150.81701 C 49.806394,139.2129 40.31116,129.55398 40.31116,129.35275 c 0,-0.20124 4.34583,-4.71049 9.657401,-10.02057 l 9.6574,-9.65468 11.444249,11.44198 c 6.294334,6.29309 11.563032,11.44198 11.708214,11.44198 0.145185,0 11.75304,-11.48953 25.795236,-25.53229 14.04219,-14.042761 25.7107,-25.532292 25.93001,-25.532292 0.21931,0 4.74353,4.346004 10.05382,9.657787 l 9.65506,9.657785 -35.58522,35.58596 c -19.571875,19.57228 -35.704454,35.57044 -35.850179,35.55147 -0.145721,-0.019 -9.760185,-9.52876 -21.365471,-21.13287 z"
         id="path867"
         inkscape:connector-curvature="0" />
      <path
         style="fill:#95f993;stroke-width:0.26458332"
         d="m 61.461418,150.66901 -21.280574,-21.28181 9.654944,-9.65766 c 5.310219,-5.31172 9.774619,-9.66259 9.920887,-9.66862 0.146268,-0.006 5.33325,5.11366 11.526625,11.37708 6.193377,6.26343 11.371156,11.38804 11.506181,11.38804 0.135025,0 11.802149,-11.55438 25.926949,-25.67641 18.59035,-18.586714 25.79754,-25.631867 26.1019,-25.515075 0.50161,0.192489 18.99908,19.030345 18.99908,19.348705 0,0.26391 -70.064772,70.40306 -70.661148,70.73616 -0.32504,0.18155 -4.997907,-4.35251 -21.694844,-21.05041 z"
         id="path865"
         inkscape:connector-curvature="0" />
      <path
         style="fill:#80f87d;stroke-width:0.26458332"
         d="M 61.543972,150.68201 C 50.011446,139.1509 40.575743,129.55221 40.575743,129.35159 c 0,-0.20062 4.286304,-4.64982 9.525119,-9.88712 l 9.525118,-9.52237 11.444238,11.44197 c 6.294331,6.29309 11.563024,11.44197 11.708206,11.44197 0.145185,0 11.75304,-11.48953 25.795236,-25.53229 14.04219,-14.042758 25.71071,-25.532289 25.93003,-25.532289 0.21932,0 4.684,4.286477 9.92151,9.525504 l 9.52275,9.525505 -35.45292,35.45366 c -19.499108,19.49951 -35.572151,35.43743 -35.717876,35.4176 -0.145724,-0.0198 -9.700656,-9.47061 -21.233182,-21.00172 z"
         id="path863"
         inkscape:connector-curvature="0" />
      <path
         style="fill:#70fa6d;stroke-width:0.26458332"
         d="m 61.626439,150.48549 -21.150344,-21.13076 9.573,-9.573 9.573,-9.573 11.452136,11.44095 c 6.298676,6.29252 11.567785,11.44095 11.70913,11.44095 0.141346,0 11.836061,-11.57861 25.988259,-25.73025 l 25.73126,-25.730245 9.59082,9.590829 9.59084,9.590826 -35.45388,35.40223 -35.453876,35.40224 z"
         id="path861"
         inkscape:connector-curvature="0" />
      <path
         style="fill:#60fd5d;stroke-width:0.26458332"
         d="m 61.758529,150.35361 -21.018255,-20.99846 9.442388,-9.44239 9.442389,-9.44239 11.312423,11.31013 c 7.340843,7.33935 11.497627,11.31013 11.839942,11.31013 0.346935,0 9.290603,-8.76274 26.126484,-25.59795 l 25.59897,-25.597953 9.45854,9.458536 9.45853,9.458537 -35.32158,35.27014 -35.321576,35.27013 z"
         id="path859"
         inkscape:connector-curvature="0" />
    </g>
  </g>
</svg>
